<svg width="256" height="256" viewBox="0 0 256 256" fill="none" xmlns="http://www.w3.org/2000/svg">
<path d="M42 93V77C42 75.8954 42.8954 75 44 75H160C161.105 75 162 75.8954 162 77V93C162 94.1046 161.105 95 160 95H44C42.8954 95 42 94.1046 42 93Z" fill="white"/>
<path d="M42 136V120C42 118.895 42.8954 118 44 118H160C161.105 118 162 118.895 162 120V136C162 137.105 161.105 138 160 138H44C42.8954 138 42 137.105 42 136Z" fill="white"/>
<path d="M42 179V163C42 161.895 42.8954 161 44 161H160C161.105 161 162 161.895 162 163V179C162 180.105 161.105 181 160 181H44C42.8954 181 42 180.105 42 179Z" fill="white"/>
<path d="M42 222V206C42 204.895 42.8954 204 44 204H160C161.105 204 162 204.895 162 206V222C162 223.105 161.105 224 160 224H44C42.8954 224 42 223.105 42 222Z" fill="white"/>
<path d="M42 50V34C42 32.8954 42.8954 32 44 32H211C212.105 32 213 32.8954 213 34V50C213 51.1046 212.105 52 211 52H44C42.8954 52 42 51.1046 42 50Z" fill="#ABAAA9"/>
<path d="M192.969 74.8203C193.768 73.8699 195.232 73.8699 196.031 74.8203L210.236 91.7128C211.33 93.0138 210.405 95 208.705 95H180.295C178.595 95 177.67 93.0138 178.764 91.7128L192.969 74.8203Z" fill="#ABAAA9"/>
<path d="M192.969 117.82C193.768 116.87 195.232 116.87 196.031 117.82L210.236 134.713C211.33 136.014 210.405 138 208.705 138H180.295C178.595 138 177.67 136.014 178.764 134.713L192.969 117.82Z" fill="#ABAAA9"/>
<path d="M192.969 160.82C193.768 159.87 195.232 159.87 196.031 160.82L210.236 177.713C211.33 179.014 210.405 181 208.705 181H180.295C178.595 181 177.67 179.014 178.764 177.713L192.969 160.82Z" fill="#ABAAA9"/>
<path d="M192.969 203.82C193.768 202.87 195.232 202.87 196.031 203.82L210.236 220.713C211.33 222.014 210.405 224 208.705 224H180.295C178.595 224 177.67 222.014 178.764 220.713L192.969 203.82Z" fill="#ABAAA9"/>
</svg>
