<svg width="256" height="256" viewBox="0 0 256 256" fill="none" xmlns="http://www.w3.org/2000/svg">
<path fill-rule="evenodd" clip-rule="evenodd" d="M216.095 126.889C216.095 171.111 180.448 206.778 136.7 206.778C116.837 206.778 98.6431 199.425 84.6982 187.256L69.1128 202.841C87.0504 218.97 110.736 228.778 136.7 228.778C192.699 228.778 238.095 183.16 238.095 126.889C238.095 70.6172 192.699 25 136.7 25C80.7019 25 35.3062 70.6172 35.3062 126.889C35.3062 127.876 35.3201 128.859 35.3479 129.84H57.3592C57.3239 128.861 57.3062 127.877 57.3062 126.889C57.3062 82.6664 92.953 47 136.7 47C180.448 47 216.095 82.6664 216.095 126.889Z" fill="white"/>
<path d="M82.8775 127.379H19.594H12L47.4388 162.817L82.8775 127.379Z" fill="white"/>
<path d="M134.602 77.2564V137.385L160.5 156.5" stroke="white" stroke-width="17" stroke-linecap="round"/>
</svg>
