<svg width="256" height="256" viewBox="0 0 256 256" fill="none" xmlns="http://www.w3.org/2000/svg">
<path d="M109.421 60C98.1504 55.2991 94.8619 57.3077 85 45M146.988 60C158.258 55.2991 157.32 57.6923 170 45" stroke="white" stroke-width="22" stroke-linecap="round" stroke-linejoin="round"/>
<path d="M79.5952 91C67.7685 91 65 90 57 80.5M93.931 139C82.1043 139 61.5 138.5 52 131M120.138 195C102.398 195 65.5 191.5 56 184.5M162.069 139C173.896 139 194.5 139 204 131M135.862 195C153.602 195 188 192 198.759 184.5M175.163 91C186.99 91 189.759 90 197.759 80.5" stroke="white" stroke-width="22" stroke-linecap="round" stroke-linejoin="round"/>
<path fill-rule="evenodd" clip-rule="evenodd" d="M127.5 233C120.222 233 81.1485 221.176 70.232 189.647C54.0704 142.969 63.8368 90.9088 81.1486 67.4706L81.6232 66.828C95.7657 47.6773 112.944 29 127.5 29C142.056 29 159.234 47.6773 173.377 66.828L173.851 67.4706C191.163 90.9088 200.93 142.969 184.768 189.647C173.852 221.176 134.778 233 127.5 233ZM94.0939 103.067C89.1602 102.463 84.6709 105.972 84.0667 110.906C83.4626 115.84 86.9724 120.329 91.9061 120.933C97.173 121.578 105.251 122.546 112.374 123.353C115.931 123.757 119.277 124.123 121.924 124.39C124.308 124.63 126.736 124.857 128 124.857C129.264 124.857 131.692 124.63 134.076 124.39C136.723 124.123 140.069 123.757 143.626 123.353C150.749 122.546 158.827 121.578 164.094 120.933C169.007 120.332 172.512 115.876 171.94 110.96C171.368 106.044 166.934 102.512 162.014 103.054L127.689 106.837C127.505 106.825 127.236 106.805 126.864 106.775C126.059 106.708 125 106.609 123.729 106.481C121.191 106.225 117.931 105.868 114.401 105.468C107.349 104.668 99.327 103.708 94.0939 103.067ZM94.0939 153.21C89.1602 152.605 84.6709 156.115 84.0667 161.049C83.4626 165.983 86.9724 170.472 91.9061 171.076C97.173 171.721 105.251 172.689 112.374 173.496C115.931 173.9 119.277 174.266 121.924 174.533C124.308 174.773 126.736 175 128 175C129.264 175 131.692 174.773 134.076 174.533C136.723 174.266 140.069 173.9 143.626 173.496C150.749 172.689 158.827 171.721 164.094 171.076C169.007 170.475 172.512 166.019 171.94 161.103C171.368 156.187 166.934 152.655 162.014 153.197L127.689 156.98C127.505 156.968 127.236 156.948 126.864 156.918C126.059 156.851 125 156.752 123.729 156.623C121.191 156.368 117.931 156.011 114.401 155.611C107.349 154.811 99.327 153.85 94.0939 153.21Z" fill="white"/>
</svg>
