<svg width="256" height="256" viewBox="0 0 256 256" fill="none" xmlns="http://www.w3.org/2000/svg">
<path d="M178.166 138.113L157.504 158.775H218.724L198.062 132.756L186.583 147.296L178.166 138.113Z" fill="white"/>
<mask id="path-2-inside-1_403_4" fill="white">
<rect x="135.97" y="75" width="105" height="105" rx="7"/>
</mask>
<rect x="135.97" y="75" width="105" height="105" rx="7" stroke="white" stroke-width="18" mask="url(#path-2-inside-1_403_4)"/>
<circle cx="168.218" cy="108.268" r="10.7135" fill="white"/>
<path d="M100.097 88.9352L86.7764 102.546C79.6287 97.6852 77.3544 95.0926 65.3333 95.0926C53.3122 95.0926 32.7139 103.713 34.7932 129.12C36.8726 154.528 56.6695 160.231 66.308 159.907C84.762 160.167 94.8987 145.324 94.8987 137.222H66.308V118.102C82.5527 117.778 115.107 117.324 115.367 118.102C115.627 118.88 116.125 125.772 116.342 129.12C116.342 158.935 95.2236 180 66.308 180C39.9916 180 14 159.259 14 129.12C14 91.5222 43.2405 75 66.308 75C84.762 75 96.5232 84.2901 100.097 88.9352Z" fill="white"/>
</svg>
