<svg width="256" height="256" viewBox="0 0 256 256" fill="none" xmlns="http://www.w3.org/2000/svg">
<path d="M21.32 91.72V77.08H38.12V91.72H21.32ZM8.6 186.16L7.52 175.24L13.04 174.64C19.2 173.92 22.28 170.32 22.28 163.84V104.32H37.28V161.92C37.28 169.76 35.48 175.52 31.88 179.2C28.28 182.96 22.24 185.16 13.76 185.8L8.6 186.16ZM50.4547 184.6V104.32H65.0947V113.68C66.7747 110.48 69.2947 107.92 72.6547 106C76.0947 104.08 79.9747 103.12 84.2947 103.12C89.4147 103.12 93.8947 104.36 97.7347 106.84C101.655 109.32 104.695 112.84 106.855 117.4C109.015 121.88 110.095 127.28 110.095 133.6C110.095 139.84 109.015 145.28 106.855 149.92C104.695 154.48 101.695 158 97.8547 160.48C94.0147 162.96 89.4947 164.2 84.2947 164.2C80.1347 164.2 76.3747 163.32 73.0147 161.56C69.7347 159.72 67.2147 157.28 65.4547 154.24V184.6H50.4547ZM80.0947 152.8C84.5747 152.8 88.1747 151.2 90.8947 148C93.6147 144.72 94.9747 139.92 94.9747 133.6C94.9747 127.2 93.6147 122.44 90.8947 119.32C88.1747 116.12 84.5747 114.52 80.0947 114.52C75.6147 114.52 72.0147 116.12 69.2947 119.32C66.5747 122.44 65.2147 127.2 65.2147 133.6C65.2147 139.92 66.5747 144.72 69.2947 148C72.0147 151.2 75.6147 152.8 80.0947 152.8ZM142.568 164.2C137.448 164.2 132.928 162.96 129.008 160.48C125.168 158 122.168 154.48 120.008 149.92C117.848 145.28 116.768 139.84 116.768 133.6C116.768 127.28 117.848 121.88 120.008 117.4C122.168 112.84 125.168 109.32 129.008 106.84C132.928 104.36 137.448 103.12 142.568 103.12C146.728 103.12 150.488 104.04 153.848 105.88C157.208 107.72 159.728 110.16 161.408 113.2V78.4H176.408V163H161.768V153.28C160.168 156.64 157.648 159.32 154.208 161.32C150.768 163.24 146.888 164.2 142.568 164.2ZM146.768 152.8C151.248 152.8 154.848 151.2 157.568 148C160.288 144.72 161.648 139.92 161.648 133.6C161.648 127.2 160.288 122.44 157.568 119.32C154.848 116.12 151.248 114.52 146.768 114.52C142.288 114.52 138.688 116.12 135.968 119.32C133.248 122.44 131.888 127.2 131.888 133.6C131.888 139.92 133.248 144.72 135.968 148C138.688 151.2 142.288 152.8 146.768 152.8ZM223.401 164.2C219.081 164.2 215.201 163.24 211.761 161.32C208.401 159.4 205.881 156.8 204.201 153.52V163H189.561V78.4H204.561V112.96C206.321 110 208.841 107.64 212.121 105.88C215.481 104.04 219.241 103.12 223.401 103.12C228.601 103.12 233.121 104.36 236.961 106.84C240.801 109.32 243.801 112.84 245.961 117.4C248.121 121.88 249.201 127.28 249.201 133.6C249.201 139.84 248.121 145.28 245.961 149.92C243.801 154.48 240.761 158 236.841 160.48C233.001 162.96 228.521 164.2 223.401 164.2ZM219.201 152.8C223.681 152.8 227.281 151.2 230.001 148C232.721 144.72 234.081 139.92 234.081 133.6C234.081 127.2 232.721 122.44 230.001 119.32C227.281 116.12 223.681 114.52 219.201 114.52C214.721 114.52 211.121 116.12 208.401 119.32C205.681 122.44 204.321 127.2 204.321 133.6C204.321 139.92 205.681 144.72 208.401 148C211.121 151.2 214.721 152.8 219.201 152.8Z" fill="white"/>
</svg>
