<svg width="256" height="256" viewBox="0 0 256 256" fill="none" xmlns="http://www.w3.org/2000/svg">
<path fill-rule="evenodd" clip-rule="evenodd" d="M122.63 22.7386L49.1275 64.534C48.8756 64.7229 48.6154 64.8953 48.3525 65.0696C46.6092 66.2249 44.7409 67.4631 44.3234 74.1421C43.7938 82.6156 44.0031 134.673 44.3234 159.654C44.3234 163.498 45.2842 165.119 49.6079 167.821C55.7571 171.665 131.918 215.542 169.229 237V188.959L207.181 167.341C209.583 165.9 211.505 161.864 211.505 157.252V73.6617C211.505 71.1223 208.623 66.4556 205.26 64.534L133.679 22.7386L133.228 22.6258C129.744 21.7548 126.095 21.7936 122.63 22.7386ZM112.183 95.9021C109.643 97.9183 106.428 99.1225 102.933 99.1225C94.708 99.1225 88.0404 92.4548 88.0404 84.2298C88.0404 76.0049 94.708 69.3372 102.933 69.3372C111.158 69.3372 117.826 76.0049 117.826 84.2298C117.826 84.97 117.772 85.6976 117.667 86.4088L152.196 106.263C154.752 104.201 158.003 102.966 161.543 102.966C169.768 102.966 176.435 109.633 176.435 117.858C176.435 126.083 169.768 132.751 161.543 132.751C153.318 132.751 146.65 126.083 146.65 117.858C146.65 117.16 146.698 116.474 146.791 115.802L112.183 95.9021ZM102.933 166.379C111.158 166.379 117.826 159.712 117.826 151.487C117.826 150.351 117.698 149.244 117.457 148.181L142.326 134.192L137.042 125.545L111.969 139.648C109.463 137.732 106.331 136.594 102.933 136.594C94.708 136.594 88.0404 143.262 88.0404 151.487C88.0404 159.712 94.708 166.379 102.933 166.379Z" fill="white"/>
</svg>
