<svg width="256" height="256" viewBox="0 0 256 256" fill="none" xmlns="http://www.w3.org/2000/svg">
<path d="M111.317 46.9656C109.528 30.081 126.878 24.6536 133.725 24.0664C140.572 23.4793 154.639 26.5325 156.133 43.4427C157.627 60.3528 141.817 66.929 133.725 68.1033C125.634 68.1033 113.185 64.5804 111.317 46.9656Z" fill="white"/>
<path d="M105.558 115.599C103.544 116.054 101.825 118.494 100.43 121.536C97.0104 128.994 89.3641 135.955 81.1598 135.955V135.955C79.283 135.955 94.2975 102.029 107.435 95.2438C120.573 88.4587 143.094 90.155 148.725 110.51C154.355 130.866 139.341 202.11 141.218 207.198C143.094 210.591 146.848 207.198 146.848 207.198C150.602 203.806 159.986 190.236 159.986 185.147C161.863 185.712 167.493 186.843 175 186.843C175 193.628 159.986 232.643 131.833 230.946C109.312 229.589 104.933 213.418 105.558 205.502C107.435 161.399 114.942 127.473 114.942 124.081C114.942 120.688 113.065 113.903 105.558 115.599Z" fill="white"/>
</svg>
