<svg width="256" height="256" viewBox="0 0 256 256" fill="none" xmlns="http://www.w3.org/2000/svg">
<g clip-path="url(#clip0_18_49)">
<path d="M116.295 96.5967C116.295 94.9399 117.638 93.5967 119.295 93.5967H137.471V181.707H119.295C117.638 181.707 116.295 180.364 116.295 178.707V96.5967Z" fill="white"/>
<rect x="156.53" y="93.5967" width="21.1761" height="131.536" fill="white"/>
<path d="M195.705 93.5967H213.882C215.538 93.5967 216.882 94.9399 216.882 96.5967V222.132C216.882 223.789 215.538 225.132 213.882 225.132H195.705V93.5967Z" fill="white"/>
<path d="M49.3335 127.775L43.4974 103.344L58.2841 123.676L63.7299 145.765L49.3335 127.775Z" fill="white"/>
<path d="M55.536 129.347L32.0485 134.724L51.5881 121.07L72.8234 116.052L55.536 129.347Z" fill="white"/>
<path d="M141.326 47.5537L135.245 22.0973L150.652 43.283L156.326 66.2985L141.326 47.5537Z" fill="white"/>
<path d="M147.788 49.1916L123.315 54.7942L143.675 40.567L165.801 35.3385L147.788 49.1916Z" fill="white"/>
<path d="M66.2249 64.6571C66.1269 64.5346 66.0571 64.3921 66.0209 64.2405L57.2877 27.6817C57.0319 26.6109 58.3902 26.0115 59.0419 26.9076L81.1697 57.3341C81.2506 57.4455 81.3093 57.5714 81.342 57.7042L89.4912 90.7575C89.7494 91.8045 88.4466 92.4252 87.7687 91.5781L66.2249 64.6571Z" fill="white"/>
<path d="M76.783 67.0182C76.6758 67.1007 76.5519 67.1589 76.4193 67.1893L41.8169 75.1108C40.7553 75.3538 40.0874 73.9107 40.9745 73.2908L69.7619 53.1744C69.8591 53.1064 69.9685 53.0575 70.0846 53.0301L101.369 45.6376C102.409 45.3918 103.094 46.7833 102.252 47.4308L76.783 67.0182Z" fill="white"/>
</g>
<defs>
<clipPath id="clip0_18_49">
<rect width="256" height="256" fill="white"/>
</clipPath>
</defs>
</svg>
