<svg width="256" height="256" viewBox="0 0 256 256" fill="none" xmlns="http://www.w3.org/2000/svg">
<g clip-path="url(#clip0_605_26)">
<path d="M121.425 35.5696C122.253 34.1347 124.088 33.6431 125.523 34.4715L141.264 43.5596L114.903 89.217L99.1624 80.129C97.7275 79.3006 97.2359 77.4658 98.0643 76.0309L121.425 35.5696Z" fill="white"/>
<rect x="157.769" y="53.0888" width="21.1761" height="110.733" transform="rotate(30 157.769 53.0888)" fill="white"/>
<path d="M219.028 18.8182V77H206.727V30.4943H206.386L193.062 38.8466V27.9375L207.466 18.8182H219.028Z" fill="white"/>
<path d="M53.2216 106.795C48.9792 106.795 45.2008 106.066 41.8864 104.608C38.5909 103.131 35.9867 101.104 34.0739 98.5284C32.1799 95.9337 31.2045 92.9413 31.1477 89.5511H43.5341C43.6098 90.9716 44.0739 92.2216 44.9261 93.3011C45.7973 94.3617 46.9527 95.1856 48.392 95.7727C49.8314 96.3598 51.4508 96.6534 53.25 96.6534C55.125 96.6534 56.7822 96.322 58.2216 95.6591C59.661 94.9962 60.7879 94.0777 61.6023 92.9034C62.4167 91.7292 62.8239 90.375 62.8239 88.8409C62.8239 87.2879 62.3883 85.9148 61.517 84.7216C60.6648 83.5095 59.4337 82.5625 57.8239 81.8807C56.233 81.1989 54.339 80.858 52.142 80.858H46.7159V71.8239H52.142C53.9981 71.8239 55.6364 71.5019 57.0568 70.858C58.4962 70.214 59.6136 69.3239 60.4091 68.1875C61.2045 67.0322 61.6023 65.6875 61.6023 64.1534C61.6023 62.6951 61.2519 61.4167 60.5511 60.3182C59.8693 59.2008 58.9034 58.3295 57.6534 57.7045C56.4223 57.0795 54.983 56.767 53.3352 56.767C51.6686 56.767 50.1439 57.0701 48.7614 57.6761C47.3788 58.2633 46.2708 59.1061 45.4375 60.2045C44.6042 61.303 44.1591 62.5909 44.1023 64.0682H32.3125C32.3693 60.7159 33.3258 57.7614 35.1818 55.2045C37.0379 52.6477 39.5379 50.6496 42.6818 49.2102C45.8447 47.7519 49.4148 47.0227 53.392 47.0227C57.4072 47.0227 60.9205 47.7519 63.9318 49.2102C66.9432 50.6686 69.2822 52.6383 70.9489 55.1193C72.6345 57.5814 73.4678 60.3466 73.4489 63.4148C73.4678 66.6723 72.4545 69.3902 70.4091 71.5682C68.3826 73.7462 65.7405 75.1288 62.483 75.7159V76.1705C66.7633 76.7197 70.0208 78.2064 72.2557 80.6307C74.5095 83.036 75.6269 86.0473 75.608 89.6648C75.6269 92.9792 74.6705 95.9242 72.7386 98.5C70.8258 101.076 68.1837 103.102 64.8125 104.58C61.4413 106.057 57.5777 106.795 53.2216 106.795Z" fill="white"/>
<path d="M113.716 241V232.136L134.426 212.96C136.188 211.256 137.665 209.722 138.858 208.358C140.07 206.994 140.989 205.659 141.614 204.352C142.239 203.027 142.551 201.597 142.551 200.062C142.551 198.358 142.163 196.89 141.386 195.659C140.61 194.409 139.549 193.453 138.205 192.79C136.86 192.108 135.335 191.767 133.631 191.767C131.85 191.767 130.297 192.127 128.972 192.847C127.646 193.566 126.623 194.598 125.903 195.943C125.184 197.288 124.824 198.888 124.824 200.744H113.148C113.148 196.937 114.009 193.633 115.733 190.83C117.456 188.027 119.871 185.858 122.977 184.324C126.083 182.79 129.663 182.023 133.716 182.023C137.883 182.023 141.509 182.761 144.597 184.239C147.703 185.697 150.117 187.723 151.841 190.318C153.564 192.913 154.426 195.886 154.426 199.239C154.426 201.436 153.991 203.604 153.119 205.744C152.267 207.884 150.742 210.261 148.545 212.875C146.348 215.47 143.252 218.585 139.256 222.222L130.761 230.545V230.943H155.193V241H113.716Z" fill="white"/>
</g>
<defs>
<clipPath id="clip0_605_26">
<rect width="256" height="256" fill="white"/>
</clipPath>
</defs>
</svg>
