<svg width="256" height="256" viewBox="0 0 256 256" fill="none" xmlns="http://www.w3.org/2000/svg">
<mask id="path-1-inside-1_302_17" fill="white">
<rect x="19" y="20" width="217" height="217" rx="5"/>
</mask>
<rect x="19" y="20" width="217" height="217" rx="5" stroke="white" stroke-opacity="0.5" stroke-width="16" mask="url(#path-1-inside-1_302_17)"/>
<mask id="mask0_302_17" style="mask-type:alpha" maskUnits="userSpaceOnUse" x="51" y="170" width="154" height="42">
<rect x="51" y="170" width="154" height="42" fill="#D9D9D9"/>
</mask>
<g mask="url(#mask0_302_17)">
<path d="M419.787 -327.719L-522.813 726.878M407.545 -266.086L-535.055 788.51M450.391 -266.086L-492.21 788.51M468.753 -238.694L-473.847 815.902M490.176 -214.726L-452.424 839.871M533.021 -214.726L-409.579 839.871M520.78 -153.094L-421.821 901.503M563.625 -153.094L-378.975 901.503M581.988 -125.702L-360.613 928.895M603.41 -101.734L-339.19 952.863M646.256 -101.734L-296.345 952.863M634.014 -40.1013L-308.586 1014.5M676.86 -40.1013L-265.741 1014.5M695.222 -12.7092L-247.378 1041.89M716.645 11.2589L-225.956 1065.86M765.611 4.41091L-176.989 1059.01M753.369 66.0432L-189.231 1120.64M796.215 66.0432L-146.385 1120.64M814.577 93.4353L-128.023 1148.03M836 117.403L-106.6 1172M275.949 -406.471L-666.652 648.126M263.707 -344.839L-678.893 709.758M306.552 -344.839L-636.048 709.758M324.915 -317.447L-617.686 737.15M346.337 -293.478L-596.263 761.118M178.016 -536.583L-764.584 518.013M165.774 -474.951L-776.826 579.645M208.62 -474.951L-733.98 579.645M226.982 -447.559L-715.618 607.038M248.405 -423.591L-694.195 631.006M67.8419 -653L-874.758 401.597M55.6003 -591.368L-887 463.229M98.4458 -591.368L-844.155 463.229M116.808 -563.976L-825.792 490.621M138.231 -540.008L-804.369 514.589" stroke="white" stroke-width="15"/>
</g>
</svg>
