<svg width="256" height="256" viewBox="0 0 256 256" fill="none" xmlns="http://www.w3.org/2000/svg">
<path d="M106.57 39.9655L138.99 70.1997C140.594 71.6955 140.694 74.2039 139.215 75.823L78 142.826L16.9216 209.679C15.3897 211.356 15.5595 213.97 17.2954 215.435L46.4939 240.067C48.1331 241.45 50.5713 241.294 52.0209 239.713L113.075 173.148L174.015 106.708C175.51 105.078 178.045 104.971 179.672 106.469L213.341 137.466C215.701 139.638 219.529 138.289 220.006 135.118L236.979 22.2162C237.373 19.5966 235.158 17.3247 232.529 17.6523L108.803 33.0709C105.435 33.4906 104.087 37.6505 106.57 39.9655Z" fill="white"/>
</svg>
