<svg width="256" height="256" viewBox="0 0 256 256" fill="none" xmlns="http://www.w3.org/2000/svg">
<path fill-rule="evenodd" clip-rule="evenodd" d="M129.096 203.192C171.123 203.192 205.192 169.123 205.192 127.096C205.192 85.0694 171.123 51 129.096 51C87.0694 51 53 85.0694 53 127.096C53 169.123 87.0694 203.192 129.096 203.192ZM129 182C158.823 182 183 157.823 183 128C183 98.1766 158.823 74 129 74C99.1766 74 75 98.1766 75 128C75 157.823 99.1766 182 129 182Z" fill="white"/>
<path d="M93.6548 64.8913L63.4348 42.3173L42.3173 63.0708L63.4348 95.1113L93.6548 64.8913Z" fill="white"/>
<path d="M162.105 190.14L192.325 212.714L213.443 191.961L192.325 159.92L162.105 190.14Z" fill="white"/>
<path d="M162.105 64.5272L192.325 41.9532L213.443 62.7067L192.325 94.7471L162.105 64.5272Z" fill="white"/>
<path d="M107.432 59.2633L112.839 21.9324L142.446 21.6749L150.17 59.2633L107.432 59.2633Z" fill="white"/>
<path d="M147.684 195.853L142.277 233.184L112.67 233.441L104.946 195.853L147.684 195.853Z" fill="white"/>
<path d="M195.853 106.704L233.184 112.111L233.441 141.718L195.853 149.442L195.853 106.704Z" fill="white"/>
<path d="M59.2633 147.684L21.9324 142.277L21.6749 112.67L59.2633 104.946L59.2633 147.684Z" fill="white"/>
<path d="M93.2908 190.14L63.0708 212.714L41.9532 191.961L63.0708 159.92L93.2908 190.14Z" fill="white"/>
</svg>
