<svg width="128" height="128" viewBox="0 0 128 128" fill="none" xmlns="http://www.w3.org/2000/svg">
<path fill-rule="evenodd" clip-rule="evenodd" d="M73.7973 18.5225C70.3343 12.5165 61.6665 12.5165 58.2036 18.5225L9.7816 102.504C6.32214 108.504 10.6526 116 17.5784 116H114.422C121.348 116 125.679 108.504 122.219 102.504L73.7973 18.5225ZM71.5156 86.4023L73.1914 35.0625H57.6016L59.3281 86.4023H71.5156ZM59.4297 96.9141C57.9401 98.3359 57.1953 100.13 57.1953 102.297C57.1953 104.396 57.9401 106.173 59.4297 107.629C60.9531 109.085 62.9505 109.812 65.4219 109.812C67.9271 109.812 69.9245 109.085 71.4141 107.629C72.9036 106.173 73.6484 104.396 73.6484 102.297C73.6484 100.13 72.9036 98.3359 71.4141 96.9141C69.9245 95.4583 67.9271 94.7305 65.4219 94.7305C62.9505 94.7305 60.9531 95.4583 59.4297 96.9141Z" fill="#CCA952"/>
</svg>
